# xmcd
#
# Track frame offsets:
#	150
#	21988
#	36042
#	47579
#	58842
#	69042
#	85277
#	102909
#	116456
#	128211
#	145296
#	161575
#	175864
#	191075
#	204267
#	220233
#	234125
#	246537
#	260059
#	271993
#	284985
#
# Disc length: 3991 seconds
#
# Revision: 0
# Processed by: cddbd v1.5.2PL0 Copyright (c) Steve Scherf et al.
# Submitted via: EZCDAudioConverter 7.1.0.1
#
DISCID=3c0f9515
DTITLE=Nu Urban Traxx Volume 257 US
DYEAR=2019
DGENRE=blues
TTITLE0=21 Savage ft. J. Cole - A Lot
TTITLE1=Chris Brown - Undecided
TTITLE2=Tory Lanez ft. Trippie Redd - Ferris Wheel
TTITLE3=Post Malone - Wow
TTITLE4=Calboy - Envy Me
TTITLE5=Gucci Mane ft. Quavo - BiPolar
TTITLE6=Lil Duval ft. Ty Dolla $ign - Pull Up
TTITLE7=Meek Mill ft. Drake - Going Bad
TTITLE8=Future - Crushed Up
TTITLE9=Tank - Dirty
TTITLE10=Normani and 6lack - Waves
TTITLE11=Zhavia ft. Jeremih - Candlelight [Remix]
TTITLE12=Gesaffelstein x The Weeknd - Lost In The Fire
TTITLE13=Kid Ink ft. Lil Wayne and Saweetie - YUSO
TTITLE14=Ari Lennox ft. J. Cole - Shea Butter Baby
TTITLE15=TM88 and Southside ft. Gunna - Order
TTITLE16=Dear Silas - Skrr Skrr
TTITLE17=A Boogie Wit Da Hoodie - Look Back At It
TTITLE18=O.T. Genasis - Bae
TTITLE19=Icewear Vezzo and Zaytoven - 2 Sides
TTITLE20=A Boogie Wit Da Hoodie ft. Tyga and Offset - Startender
EXTD=
EXTT0=
EXTT1=
EXTT2=
EXTT3=
EXTT4=
EXTT5=
EXTT6=
EXTT7=
EXTT8=
EXTT9=
EXTT10=
EXTT11=
EXTT12=
EXTT13=
EXTT14=
EXTT15=
EXTT16=
EXTT17=
EXTT18=
EXTT19=
EXTT20=
PLAYORDER=
